<svg xmlns="http://www.w3.org/2000/svg" width="32" height="32" viewBox="0 0 512 512">
  <rect width="512" height="512" fill="#0a0b0f" rx="102"/>
  <g transform="translate(96, 96)" fill="none" stroke="#c5ff00" stroke-width="24" stroke-linecap="round" stroke-linejoin="round">
    <path d="M192 192 128 128"/>
    <path d="M248.77 286.47a26.67 26.67 0 1 1-37.72-37.7l-23.56 23.56a26.67 26.67 0 1 1-37.72-37.72l84.85-84.85a26.67 26.67 0 1 1 37.72 37.72l-23.56 23.56a26.67 26.67 0 1 1 37.7 37.71z"/>
    <path d="m286.67 286.67-18.67-18.67"/>
    <path d="M52 52 33.33 33.33"/>
    <path d="M85.39 170.24a26.67 26.67 0 1 1-37.72-37.72l23.57-23.56a26.67 26.67 0 1 1-37.72-37.72l37.71-37.71a26.67 26.67 0 1 1 37.72 37.71l23.56-23.56a26.67 26.67 0 1 1 37.72 37.72z"/>
  </g>
</svg>
